<?xml version="1.0" standalone="no"?>
<!DOCTYPE svg PUBLIC "-//W3C//DTD SVG 20010904//EN"
 "http://www.w3.org/TR/2001/REC-SVG-20010904/DTD/svg10.dtd">
<svg version="1.0" xmlns="http://www.w3.org/2000/svg"
 width="889.000000pt" height="889.000000pt" viewBox="0 0 889.000000 889.000000"
 preserveAspectRatio="xMidYMid meet">
<metadata>
Created by potrace 1.11, written by Peter Selinger 2001-2013
</metadata>
<g transform="translate(0.000000,889.000000) scale(0.100000,-0.100000)"
fill="#000000" stroke="none">
<path d="M1952 8107 l-342 -342 0 -2080 0 -2080 342 -342 343 -343 360 0 360
0 343 343 342 342 0 1383 0 1382 690 0 690 0 0 -615 0 -615 -301 -2 -302 -3
-198 -345 c-109 -190 -198 -349 -198 -355 0 -5 197 -350 437 -765 l437 -755
404 -3 c384 -2 403 -1 399 16 -3 10 -197 350 -431 756 -235 406 -427 740 -427
742 0 2 42 4 93 4 l92 0 348 348 347 347 0 630 0 630 -348 348 -347 347 -695
0 -696 0 -347 -347 -347 -348 0 -1387 0 -1388 -345 0 -345 0 0 2070 0 2070
2075 0 2075 0 0 -2070 0 -2070 -465 -2 -464 -3 197 -342 197 -343 275 0 275 0
343 343 342 342 0 2080 0 2080 -342 342 -343 343 -2090 0 -2090 0 -343 -343z"/>
<path d="M1452 1272 c-166 -438 -302 -800 -302 -805 0 -4 75 -6 166 -5 l166 3
63 160 62 160 269 0 269 0 59 -163 59 -162 168 0 c93 0 169 2 169 5 0 3 -129
352 -286 777 -158 425 -291 785 -296 801 l-10 27 -126 0 -127 0 -303 -798z
m511 40 l94 -272 -180 0 c-166 0 -179 1 -175 18 22 79 162 531 165 529 1 -2
45 -126 96 -275z"/>
<path d="M2790 1265 l0 -805 155 0 155 0 2 526 3 527 404 -537 404 -536 119 0
118 0 0 795 0 795 -155 0 -155 0 -2 -520 -3 -519 -405 539 -405 539 -117 1
-118 0 0 -805z"/>
<path d="M4360 1900 l0 -140 160 0 160 0 0 -650 0 -650 155 0 155 0 0 650 0
650 160 0 160 0 0 140 0 140 -475 0 -475 0 0 -140z"/>
<path d="M5520 1250 l0 -790 410 0 410 0 0 135 0 135 -255 0 -255 0 0 210 0
210 245 0 245 0 0 135 0 135 -245 0 -245 0 0 170 0 170 255 0 255 0 0 140 0
140 -410 0 -410 0 0 -790z"/>
<path d="M7920 1900 l0 -140 160 0 160 0 0 -650 0 -650 155 0 155 0 0 650 0
650 160 0 160 0 0 140 0 140 -475 0 -475 0 0 -140z"/>
<path d="M10 1246 l0 -786 155 0 155 0 0 313 0 312 187 -312 187 -313 194 0
193 0 -220 328 -220 327 33 11 c66 23 113 53 158 102 92 98 122 192 116 361
-7 176 -53 273 -167 353 -108 76 -139 81 -473 86 l-298 4 0 -786z m481 513
c97 -24 144 -92 144 -210 0 -150 -72 -221 -237 -235 l-78 -7 0 236 0 236 68
-5 c37 -3 83 -10 103 -15z"/>
<path d="M6640 1245 l0 -785 155 0 155 0 2 346 3 347 245 -346 245 -346 203 0
c111 -1 202 1 202 5 0 3 -136 188 -303 412 -166 224 -306 412 -310 418 -3 6
121 166 283 363 159 194 292 356 295 362 4 5 -69 9 -189 9 l-195 0 -238 -325
-238 -324 -3 324 -2 325 -155 0 -155 0 0 -785z"/>
</g>
</svg>
